# xmcd
#
# Track frame offsets:
#	150
#	14018
#	30646
#	47756
#	61624
#	75398
#	93294
#	109381
#	137600
#	153813
#	165671
#	189158
#	204809
#	223475
#	234132
#	253787
#
# Disc length: 3769 seconds
#
# Revision: 0
# Processed by: cddbd v1.4PL0 Copyright (c) Steve Scherf et al.
# Submitted via: audiograbber 1.82.01
#
DISCID=c60eb710
DTITLE=Westernhagen -  Best Of 1
DYEAR=1900
DGENRE=
TTITLE0=Zieh Dir Bloß Die Schuhe Aus
TTITLE1=Alles In Den Wind
TTITLE2=Grüß Mir Die Genossen
TTITLE3=Zieh Dir Bloß Die Schuhe Aus
TTITLE4=Lilli , Die Mücke
TTITLE5=Take 4 Because Your Birne Is Weich
TTITLE6=Der Junge Auf Dem Weißen  Pferd
TTITLE7=Weißt Du, Das Ich Glücklich Bin
TTITLE8=Mutter
TTITLE9=Freiheit
TTITLE10=Ganz Und Gar
TTITLE11=Jonny Walker
TTITLE12=Krieg
TTITLE13=Geiler Ist Schon
TTITLE14=Lass Uns Leben
TTITLE15=Nimm Mich Mit (Club)
EXTD=
EXTT0=
EXTT1=
EXTT2=
EXTT3=
EXTT4=
EXTT5=
EXTT6=
EXTT7=
EXTT8=
EXTT9=
EXTT10=
EXTT11=
EXTT12=
EXTT13=
EXTT14=
EXTT15=
PLAYORDER=
